<svg width="498" height="339" viewBox="0 0 498 339" fill="none" xmlns="http://www.w3.org/2000/svg">
<mask id="mask0_452_2093" style="mask-type:luminance" maskUnits="userSpaceOnUse" x="0" y="0" width="498" height="339">
<path d="M444.327 323.434C430.096 327.995 412.764 329.232 398.998 328.28C398.998 328.28 145.903 352.683 54.4168 327.664C-13.2928 309.148 -5.11812 243.233 15.6026 201.043C36.5605 158.372 -18.4535 75.8906 69.9807 28.0605C120.847 0.549409 166.47 44.5731 254.404 12.0725C333.794 -17.2699 436.202 8.97629 461.246 70.5161C478.473 112.85 456.755 158.486 478.473 180.604C513.695 216.478 497.499 306.393 444.329 323.434H444.327Z" fill="white"/>
</mask>
<g mask="url(#mask0_452_2093)">
<path d="M444.327 323.434C430.096 327.995 412.764 329.232 398.998 328.28C398.998 328.28 145.903 352.683 54.4168 327.664C-13.2928 309.148 -5.11812 243.233 15.6026 201.043C36.5605 158.372 -18.4535 75.8906 69.9807 28.0605C120.847 0.549409 166.47 44.5731 254.404 12.0725C333.794 -17.2699 436.202 8.97629 461.246 70.5161C478.473 112.85 456.755 158.486 478.473 180.604C513.695 216.478 497.499 306.393 444.329 323.434H444.327Z" fill="#DAE6FF"/>
<path d="M370.679 289.449C370.679 300.97 295.7 310.311 203.207 310.311C110.714 310.311 35.7372 300.97 35.7372 289.449C35.7372 277.928 110.716 268.59 203.207 268.59C295.698 268.59 370.679 277.93 370.679 289.449Z" fill="#C1CFEA"/>
<path d="M189.936 186.208C171.17 161.809 146.411 191.718 146.411 191.718C146.411 191.718 121.652 161.809 102.887 186.208C84.1214 210.607 146.411 257.569 146.411 257.569C146.411 257.569 208.701 210.607 189.936 186.208Z" fill="#FF6760"/>
<path d="M287.936 82.4023C287.936 82.4023 293.593 98.6994 291.906 104.365C290.218 110.031 283.186 125.817 283.564 132.126C283.682 134.089 285.663 149.279 289.026 151.782C291.301 153.476 297.504 148.7 296.643 140.956C295.146 127.495 300.163 120.391 303.077 115.17C308.047 106.264 310.237 100.85 309.715 105.439C309.715 105.439 306.039 119.286 305.852 125.518C305.8 127.202 307.682 140.439 311.031 142.101C312.842 142.998 319.247 140.664 318.533 128.64C318.065 120.738 323.074 116.297 326.973 111.426C330.35 107.21 345.308 97.4146 345.308 97.4146L329.198 81.1494L287.936 82.4043V82.4023Z" fill="#E96F5F"/>
<path d="M447.014 112.754C441.068 110.494 382.059 125.369 377.969 128.184C367.833 135.158 338.172 138.929 314.401 138.165C301.439 137.752 285.54 140.96 279.488 142.53C274.726 143.766 256.312 150.593 252.195 149.205C249.771 148.385 248.996 139.473 250.678 135.932C254.278 128.341 265.064 123.322 283.682 117.323C301.419 111.609 312.384 97.285 301.913 95.0925C274.309 89.313 253.543 141.969 240.664 138.771C237.201 137.911 240.403 125.496 244.493 115.042C246.173 110.743 259.84 85.5763 268.16 76.2696C273.366 70.4462 314.559 39.414 333.669 35.3681C342.465 33.5048 400.388 51.8149 402.09 52.6149L402.096 52.6189C412.772 52.204 435.275 40.7945 436.714 41.1157C439.844 69.7879 450.654 91.4556 447.014 112.754Z" fill="#FFA089"/>
<path d="M111.326 155.312C113.824 155.766 116.302 156.511 118.75 157.542C121.61 153.414 124.805 149.983 128.314 147.272C123.402 148.89 118.736 150.942 114.51 153.362C113.423 153.985 112.361 154.635 111.324 155.312H111.326ZM97.401 167.71C99.187 166.799 101.029 165.989 102.925 165.285C107.017 163.762 111.342 162.727 115.845 162.178C116.075 161.773 116.308 161.372 116.543 160.977C116.993 160.221 117.454 159.485 117.924 158.769C115.168 157.632 112.377 156.876 109.564 156.503C104.968 159.718 100.897 163.469 97.399 167.712L97.401 167.71ZM98.5233 156.989C91.1579 162.771 82.8417 171.529 78.8511 183.509C80.2703 181.626 81.7693 179.858 83.344 178.214C86.6171 174.799 90.237 171.888 94.1678 169.51C94.1858 169.486 94.2037 169.462 94.2217 169.436C97.9073 164.431 102.317 160.028 107.382 156.285C105.442 156.163 103.493 156.223 101.541 156.467C100.535 156.59 99.5279 156.766 98.5213 156.987L98.5233 156.989ZM139.283 142.992C141.531 142.581 143.796 142.26 146.06 142.035C148.855 141.756 151.638 141.62 154.392 141.624C149.24 140.926 144.079 141.396 139.283 142.992ZM120.635 161.783C121.12 161.522 121.61 161.269 122.106 161.017C122.174 160.983 122.242 160.949 122.31 160.913C121.746 160.592 121.177 160.287 120.609 160C120.165 159.774 119.72 159.559 119.274 159.355C118.71 160.213 118.164 161.091 117.639 161.987C118.63 161.895 119.629 161.827 120.635 161.781V161.783ZM116.762 163.531C116.617 163.794 116.473 164.062 116.332 164.327C116.8 164.024 117.275 163.724 117.757 163.429C117.424 163.459 117.093 163.493 116.762 163.529V163.531ZM87.4662 161.39C86.6589 162.635 85.8776 163.918 85.1241 165.239C81.2909 171.952 78.1753 179.571 75.8351 187.88C75.9986 187.621 76.164 187.363 76.3295 187.108C77.1388 183.696 78.3248 180.369 79.8876 177.133C83.2982 170.071 88.3772 163.645 95.0369 157.953C92.4894 158.797 89.9559 159.948 87.4662 161.388V161.39ZM123.88 160.157C130.771 156.937 138.286 154.867 145.404 154.228C149.094 151.389 153.097 148.479 157.476 145.488C158.626 144.704 159.776 143.994 160.923 143.359C156.113 142.945 151.179 142.98 146.202 143.477C141.717 143.926 137.234 144.752 132.886 145.913C127.795 148.91 123.581 153.147 120.095 158.144C120.484 158.326 120.873 158.515 121.261 158.713C122.138 159.158 123.009 159.639 123.878 160.159L123.88 160.157ZM163.315 142.147C166.293 140.772 169.253 139.908 172.179 139.563C164.975 137.524 156.113 136.966 146.465 138.041C131.152 139.747 115.359 145.434 103.132 153.644C102.466 154.091 101.78 154.567 101.079 155.07C101.174 155.058 101.27 155.044 101.366 155.034C103.987 154.709 106.602 154.697 109.198 154.998C110.679 153.981 112.209 153.019 113.794 152.112C119.366 148.916 125.696 146.354 132.336 144.564C133.568 143.846 134.832 143.208 136.129 142.649C142.05 140.1 148.64 139.28 155.192 140.279C157.524 140.634 159.838 141.225 162.021 142.007C162.453 142.049 162.886 142.097 163.317 142.147H163.315ZM126.394 161.773C129.246 161.887 132.153 162.176 135.097 162.641C137.636 160.441 140.337 158.2 143.234 155.918C137.433 156.684 131.262 158.414 125.35 161.075C125.698 161.303 126.045 161.534 126.392 161.773H126.394ZM128.549 163.343C129.549 164.111 130.542 164.931 131.529 165.803C132.229 165.169 132.942 164.532 133.668 163.892C131.945 163.649 130.237 163.465 128.549 163.345V163.343ZM103.411 179.146C105.235 178.615 107.061 178.448 108.881 178.639C109.965 175.178 111.169 171.932 112.493 168.909C109.744 171.152 107.366 173.588 105.426 176.161C104.689 177.141 104.017 178.134 103.409 179.144L103.411 179.146ZM136.951 162.956C138.388 163.218 139.835 163.519 141.29 163.862C145.097 160.301 149.084 157.54 153.23 155.595C150.94 155.409 148.496 155.419 145.961 155.627C142.731 158.12 139.743 160.56 136.951 162.956ZM132.609 166.779C133.648 167.738 134.676 168.756 135.695 169.829C137.116 168.117 138.567 166.529 140.044 165.063C138.531 164.724 137.028 164.429 135.535 164.181C134.537 165.053 133.56 165.921 132.607 166.781L132.609 166.779ZM110.348 178.872C111.815 179.186 113.276 179.734 114.725 180.516C115.136 180.74 115.546 180.981 115.957 181.241C120.35 176.546 125.035 171.754 130.454 166.783C128.957 165.468 127.447 164.275 125.918 163.204C124.269 163.148 122.641 163.152 121.032 163.216C118.885 164.383 116.864 165.652 114.98 167.004C113.166 170.783 111.637 174.787 110.346 178.87L110.348 178.872ZM155.935 154.454C156.812 154.123 157.695 153.827 158.584 153.568C163.177 152.227 167.865 151.838 172.609 152.399C171.469 149.905 170.16 148.102 168.703 147.05C167.042 145.851 165.091 144.792 162.97 143.922C161.417 144.698 159.858 145.62 158.295 146.685C154.614 149.199 151.203 151.653 148.02 154.059C150.85 153.945 153.505 154.081 155.935 154.454ZM109.917 180.267C108.877 183.724 108 187.23 107.266 190.699C107.8 190.114 108.336 189.528 108.875 188.937C110.874 186.747 112.883 184.542 114.952 182.318C114.647 182.13 114.344 181.955 114.039 181.791C112.674 181.053 111.299 180.544 109.919 180.267H109.917ZM166.151 142.53C171.858 143.413 177.35 144.938 182.482 147.086C184.278 147.838 186.031 148.664 187.737 149.562C186.445 147.671 184.783 145.971 182.754 144.485C180.818 143.066 178.56 141.855 176.034 140.858C172.797 140.724 169.492 141.285 166.151 142.53ZM102.352 181.043C99.9126 185.799 98.8821 190.852 99.2807 196.125C99.3485 197.015 99.4821 197.927 99.6814 198.856C101.603 196.845 103.481 194.824 105.356 192.782C106.229 188.271 107.26 184.028 108.444 180.058C106.517 179.898 104.583 180.187 102.655 180.923C102.552 180.963 102.45 181.003 102.348 181.043H102.352ZM117.167 182.064C119.397 183.686 121.606 185.871 123.787 188.608C126.119 183.72 128.864 179.056 132.013 174.627C132.92 173.35 133.841 172.129 134.774 170.96C133.704 169.829 132.623 168.76 131.535 167.756C126.167 172.674 121.52 177.418 117.167 182.064ZM99.8628 182.224C90.2709 187.557 87.6516 198.964 89.2842 209.077C92.5672 206.08 95.5871 203.098 98.4914 200.095C98.1525 198.775 97.9332 197.486 97.8376 196.235C97.4628 191.277 98.2861 186.509 100.293 181.991C100.148 182.066 100.002 182.144 99.8608 182.224H99.8628ZM157.966 168.231C160.04 167.078 162.2 166.238 164.439 165.715C165.88 165.38 167.351 165.181 168.842 165.117C168.427 163.198 167.55 161.442 165.982 160.084C163.56 157.987 160.135 156.614 156.087 155.946C151.528 157.725 147.147 160.51 142.975 164.281C144.806 164.752 146.648 165.287 148.502 165.887C151.271 166.785 154.018 167.814 156.725 168.965C157.135 168.708 157.55 168.465 157.966 168.231ZM95.1625 170.605C90.4582 177.079 86.9859 184.564 84.839 192.859C83.0231 199.872 82.168 207.369 82.2676 215.187C82.5606 214.924 82.8596 214.667 83.1626 214.415C84.851 213.011 86.4636 211.616 88.0184 210.224C85.8497 198.651 89.023 185.137 101.314 179.906C102.153 178.336 103.14 176.796 104.272 175.291C106.788 171.952 110.013 168.84 113.804 166.073C114.189 165.285 114.582 164.51 114.984 163.756C110.966 164.317 107.101 165.281 103.431 166.645C100.543 167.718 97.7837 169.043 95.1645 170.607L95.1625 170.605ZM136.688 170.894C138.304 172.664 139.897 174.573 141.462 176.622C142.644 178.168 143.786 179.746 144.888 181.348C145.496 180.425 146.154 179.477 146.858 178.509C149.449 174.95 152.266 172.085 155.283 169.929C152.899 168.941 150.485 168.05 148.056 167.264C145.927 166.573 143.812 165.971 141.713 165.456C140.001 167.102 138.326 168.915 136.688 170.896V170.894ZM77.669 187.706C76.0544 194.683 75.9209 202.637 78.1434 211.61C78.6597 213.693 79.2457 215.664 79.9055 217.52C80.2125 217.184 80.5255 216.855 80.8464 216.534C80.6271 208.107 81.4862 200.031 83.4377 192.496C85.3174 185.235 88.1958 178.577 92.009 172.652C89.2921 174.565 86.7486 176.756 84.3885 179.22C81.9587 181.755 79.7162 184.59 77.669 187.706ZM170.315 165.097C172.255 165.129 174.222 165.386 176.197 165.865C176.184 165.777 176.17 165.69 176.156 165.602C175.426 160.925 174.449 157.013 173.257 153.941C168.423 153.255 163.651 153.592 158.989 154.954C158.915 154.976 158.842 154.996 158.768 155.02C162.075 155.85 164.845 157.187 166.928 158.988C168.695 160.518 169.827 162.575 170.315 165.097ZM124.785 189.881C126.474 189.049 128.308 188.309 130.267 187.676C134.204 186.408 138.368 185.687 142.373 185.562C142.871 184.624 143.429 183.66 144.041 182.673C142.847 180.915 141.603 179.192 140.311 177.502C138.818 175.549 137.304 173.723 135.765 172.032C134.894 173.129 134.034 174.274 133.187 175.465C129.948 180.022 127.144 184.832 124.783 189.881H124.785ZM100.1 200.512C100.762 202.806 101.796 205.2 103.172 207.656C103.327 206.068 103.519 204.428 103.744 202.739C104.077 200.243 104.449 197.811 104.866 195.451C103.295 197.149 101.715 198.834 100.1 200.512ZM80.4756 219.054C80.653 219.509 80.8344 219.958 81.0218 220.398C80.9819 219.782 80.948 219.167 80.9201 218.555C80.7706 218.719 80.6231 218.886 80.4756 219.054ZM174.27 152.632C177.244 153.121 180.238 153.981 183.24 155.212C185.991 156.339 188.606 157.737 191.028 159.294C190.841 156.65 190.209 154.206 189.138 151.984C186.824 150.653 184.418 149.464 181.924 148.421C177.124 146.414 172.004 144.959 166.681 144.08C167.704 144.634 168.665 145.235 169.548 145.873C170.977 146.907 172.689 148.88 174.27 152.632ZM144.025 185.544C144.683 185.552 145.335 185.574 145.979 185.614C145.634 185.071 145.283 184.53 144.928 183.994C144.609 184.518 144.31 185.035 144.025 185.544ZM158.355 169.674C161.704 171.17 164.985 172.846 168.164 174.689C168.846 172.189 169.34 169.275 169.065 166.555C167.608 166.607 166.171 166.797 164.768 167.124C162.549 167.643 160.41 168.494 158.355 169.674ZM74.5016 193.049C72.7355 200.55 71.5694 208.546 71.0472 216.891C70.7781 221.198 71.1927 225.829 72.2511 230.645C73.782 226.168 75.9986 222.164 78.8212 218.764C78.0338 216.642 77.3401 214.373 76.7421 211.96C74.9621 204.768 74.5674 197.811 75.5561 191.152C75.1993 191.774 74.8484 192.407 74.5036 193.049H74.5016ZM190.27 150.968C194.903 153.678 199.173 156.949 203.054 160.762C199.569 155.104 195.601 150.396 191.413 147.06C188.05 144.381 184.552 142.557 180.964 141.608C181.898 142.141 182.779 142.711 183.607 143.316C186.551 145.472 188.777 148.038 190.27 150.966V150.968ZM104.272 212.133C104.188 213.542 104.136 214.908 104.115 216.231C104.834 215.802 105.568 215.381 106.319 214.962C105.594 214.016 104.912 213.073 104.272 212.133ZM107.591 214.268C109.698 213.137 111.926 212.041 114.273 210.982C112.905 208.552 112.463 205.673 113.021 202.521C113.78 198.23 117.306 194.13 122.686 191.004C122.826 190.691 122.968 190.378 123.109 190.064C120.819 187.108 118.504 184.792 116.174 183.128C114.051 185.408 111.99 187.668 109.943 189.913C108.861 191.1 107.786 192.277 106.712 193.448C106.09 196.682 105.588 199.866 105.179 202.93C104.862 205.308 104.617 207.591 104.439 209.779C105.374 211.259 106.427 212.76 107.593 214.268H107.591ZM115.59 210.395C115.899 210.262 116.206 210.128 116.519 209.994C117.775 204.209 119.503 198.641 121.698 193.316C117.659 196.039 115.05 199.351 114.446 202.775C113.936 205.663 114.33 208.235 115.592 210.395H115.59ZM89.5971 210.751C89.7307 211.385 89.8822 212.015 90.0496 212.636C91.0263 216.259 92.6031 219.794 94.718 222.832C97.0801 220.847 99.7233 218.944 102.645 217.123C102.661 214.91 102.765 212.572 102.956 210.106C101.176 207.221 99.8289 204.4 98.9578 201.695C96.0157 204.718 92.9439 207.724 89.5971 210.751ZM84.6776 163.14C82.1082 164.874 79.5946 166.922 77.1647 169.267C70.2897 175.904 64.224 184.863 60.0818 194.495C56.2427 203.425 56.3025 215.92 60.2473 229.677C61.3456 233.504 62.727 237.348 64.3456 241.128C63.5941 238.086 63.1655 234.888 63.0619 231.55C62.7908 222.852 64.7243 212.963 68.8067 202.154C70.0943 198.749 71.5395 195.537 73.1382 192.528C75.6019 182.134 79.2138 172.674 83.8683 164.52C84.1334 164.056 84.4025 163.595 84.6756 163.138L84.6776 163.14ZM177.722 166.278C179.369 166.771 181.013 167.417 182.646 168.215C184.843 169.288 186.991 170.617 189.052 172.165C189.268 171.367 189.497 170.559 189.736 169.737C190.631 166.663 191.08 163.76 191.088 161.051C188.68 159.435 185.873 157.855 182.694 156.552C180.082 155.481 177.479 154.701 174.89 154.212C175.912 157.021 176.851 160.664 177.587 165.378C177.633 165.676 177.679 165.975 177.722 166.278ZM112.221 214.814C113.376 214.172 114.562 213.591 115.778 213.073C115.526 212.793 115.289 212.504 115.068 212.209C112.762 213.242 110.571 214.314 108.5 215.419C108.801 215.79 109.106 216.161 109.421 216.534C110.328 215.92 111.263 215.347 112.221 214.814ZM118.154 209.308C121.03 208.123 124.07 206.986 127.267 205.899C128.774 205.388 130.267 204.923 131.748 204.506C129.314 199.485 126.845 195.222 124.347 191.728C124.171 191.822 123.998 191.918 123.825 192.014C121.417 197.516 119.525 203.289 118.156 209.308H118.154ZM104.105 217.921C104.109 218.914 104.131 219.882 104.172 220.823C105.444 219.572 106.808 218.417 108.245 217.362C107.896 216.945 107.555 216.53 107.222 216.113C106.148 216.706 105.111 217.308 104.105 217.921ZM82.7799 224.079C84.0975 226.537 85.5865 228.71 87.245 230.589C89.039 228.225 91.1659 225.956 93.6197 223.782C91.4409 220.696 89.7347 217.017 88.6543 213.013C88.5506 212.63 88.4529 212.245 88.3632 211.856C86.9878 213.075 85.5666 214.3 84.0875 215.529C83.4756 216.037 82.8856 216.568 82.3135 217.123C82.3872 219.417 82.5427 221.735 82.7799 224.079ZM169.46 175.447C172.225 177.101 174.908 178.876 177.485 180.76C177.334 176.022 176.983 171.511 176.425 167.415C174.441 166.891 172.468 166.601 170.524 166.549C170.76 169.109 170.413 172.076 169.472 175.399C169.468 175.415 169.464 175.431 169.46 175.447ZM147.792 185.773C152.941 186.364 157.37 188.057 160.741 190.715C163.931 185.534 166.352 180.53 167.748 176.115C164.235 174.067 160.59 172.215 156.868 170.599C153.697 172.712 150.743 175.641 148.032 179.363C147.21 180.488 146.459 181.584 145.773 182.647C146.463 183.678 147.137 184.722 147.792 185.773ZM133.163 204.121C135.659 203.465 138.115 202.946 140.529 202.565C140.108 201.763 139.773 200.919 139.53 200.027C138.533 196.349 139.219 192.057 141.629 187.042C138.005 187.226 134.266 187.91 130.716 189.055C128.904 189.639 127.205 190.316 125.641 191.072C128.188 194.661 130.7 199.014 133.163 204.121ZM83.1985 227.628C83.5194 230.024 83.9241 232.442 84.4125 234.876C85.0065 233.829 85.6603 232.797 86.3739 231.782C85.2397 230.523 84.1812 229.138 83.2005 227.628H83.1985ZM95.5791 223.995C96.5678 225.268 97.6601 226.435 98.8482 227.459C99.811 225.909 100.899 224.428 102.107 223.026C102.331 222.768 102.558 222.511 102.787 222.26C102.715 221.152 102.671 220.007 102.655 218.824C100.06 220.48 97.7 222.206 95.5791 223.995ZM72.9209 233.38C73.7461 236.48 74.8285 239.646 76.1581 242.842C77.374 240.139 79.1461 238.423 81.4444 237.731C81.9766 237.569 82.5327 237.466 83.1068 237.412C83.1866 237.238 83.2703 237.065 83.354 236.891C82.453 232.714 81.7932 228.578 81.3706 224.508C80.675 223.187 80.0271 221.791 79.4271 220.319C76.5049 224.019 74.3003 228.43 72.9189 233.38H72.9209ZM148.767 187.363C151.068 191.186 153.143 195.132 154.976 199.158C156.78 196.752 158.453 194.336 159.97 191.95C157.042 189.602 153.22 188.036 148.767 187.363ZM117.506 212.388C119.142 211.784 120.821 211.293 122.533 210.924C126.659 210.032 130.783 209.925 134.517 210.581C133.809 208.933 133.098 207.349 132.382 205.833C130.847 206.26 129.298 206.739 127.734 207.269C124.217 208.464 120.898 209.719 117.779 211.032C117.685 211.483 117.593 211.934 117.504 212.388H117.506ZM110.374 217.639C111.685 219.14 113.102 220.642 114.621 222.142C114.773 220.592 114.958 219.05 115.178 217.52C115.311 216.584 115.455 215.654 115.612 214.729C113.788 215.555 112.036 216.528 110.376 217.639H110.374ZM142.064 202.34C145.789 201.835 149.413 201.661 152.931 201.817C153.286 201.368 153.637 200.917 153.984 200.468C151.943 195.902 149.586 191.443 146.939 187.14C145.741 187.028 144.511 186.98 143.262 186.992C140.742 191.968 139.979 196.147 140.927 199.648C141.185 200.6 141.569 201.494 142.062 202.34H142.064ZM99.9864 228.372C101.238 229.31 102.586 230.092 104.023 230.689C103.536 228.724 103.182 226.583 102.952 224.267C101.854 225.569 100.865 226.94 99.9864 228.372ZM88.2476 231.664C89.045 232.48 89.8782 233.232 90.7473 233.923C92.029 234.94 93.3964 235.824 94.8456 236.574C95.623 233.811 96.7133 231.181 98.1067 228.714C97.9651 228.596 97.8236 228.474 97.6841 228.35C96.5439 227.343 95.4735 226.202 94.4888 224.943C92.0768 227.09 89.9938 229.332 88.2476 231.664ZM142.971 203.682C144.189 205.27 145.815 206.685 147.723 207.986C149.13 206.421 150.491 204.831 151.799 203.227C148.929 203.156 145.985 203.307 142.971 203.682ZM71.8863 198.455C71.2844 199.824 70.7123 201.228 70.1681 202.669C66.1535 213.298 64.2519 223 64.517 231.507C64.7482 238.898 66.622 245.571 70.0904 251.351C69.5223 245.877 69.8053 240.452 70.9515 235.305C71.097 234.651 71.2565 234.004 71.4279 233.366C69.9169 227.552 69.289 221.956 69.614 216.801C70.0106 210.467 70.7741 204.333 71.8883 198.455H71.8863ZM178.974 181.867C181.488 183.774 183.896 185.785 186.17 187.884C186.475 183.664 187.304 178.938 188.658 173.677C186.529 172.034 184.298 170.631 182.018 169.516C180.667 168.856 179.307 168.305 177.948 167.864C178.506 172.161 178.849 176.895 178.974 181.867ZM136.247 210.948C137.106 211.162 137.939 211.419 138.743 211.72C140.064 212.215 141.296 212.819 142.428 213.528C143.513 212.458 144.597 211.351 145.676 210.208C146.032 209.831 146.387 209.45 146.738 209.067C144.527 207.541 142.672 205.855 141.34 203.906C138.872 204.275 136.359 204.79 133.801 205.452C134.621 207.199 135.438 209.033 136.247 210.948ZM84.9527 237.414C87.6177 237.639 90.6516 238.78 93.9545 240.57C94.0981 239.706 94.2715 238.852 94.4728 238.01C92.8343 237.186 91.2915 236.201 89.8483 235.056C88.9951 234.379 88.1759 233.645 87.3905 232.855C86.4397 234.232 85.6005 235.64 84.8789 237.079C84.9028 237.19 84.9287 237.302 84.9527 237.414ZM118.465 213.581C118.684 213.749 118.911 213.911 119.146 214.068C121.777 215.83 127.245 218.156 137.341 217.542C136.632 215.69 135.918 213.907 135.203 212.189C131.419 211.369 127.138 211.411 122.842 212.339C121.355 212.66 119.894 213.077 118.465 213.581ZM136.953 212.642C137.537 214.064 138.119 215.531 138.697 217.043C139.582 216.245 140.469 215.421 141.354 214.569C140.387 213.99 139.347 213.492 138.234 213.075C137.816 212.919 137.389 212.774 136.953 212.642ZM105.689 231.281C108.111 232.003 110.764 232.205 113.621 231.738C113.778 231.712 113.936 231.684 114.095 231.654C114.129 229.087 114.249 226.529 114.454 223.993C112.552 222.156 110.794 220.311 109.19 218.465C107.429 219.748 105.787 221.188 104.288 222.77C104.443 224.861 104.699 226.806 105.053 228.602C105.237 229.53 105.448 230.423 105.687 231.281H105.689ZM76.9713 244.727C77.8883 246.79 78.9069 248.863 80.0251 250.936C80.067 248.135 80.4457 245.404 81.1633 242.752C81.5102 241.472 81.9328 240.211 82.4331 238.972C82.2397 239.012 82.0504 239.06 81.865 239.115C79.6265 239.792 78.0238 241.629 76.9713 244.727ZM190.298 173.131C194.203 176.281 197.757 180.211 200.68 184.644C203.602 181.396 205.266 179.1 205.408 178.214C205.659 176.646 203.935 172.844 199.557 168.193C198.09 166.635 195.72 164.355 192.529 162.049C192.421 164.6 191.957 167.303 191.13 170.142C190.835 171.156 190.557 172.151 190.298 173.131ZM115.546 231.331C117.155 230.916 118.859 230.3 120.633 229.502C118.943 228.105 117.332 226.695 115.807 225.274C115.666 227.283 115.578 229.302 115.544 231.331H115.546ZM122.078 228.817C126.565 226.593 131.457 223.257 136.432 219.024C128.78 219.355 122.555 218.092 118.341 215.271C117.916 214.988 117.516 214.689 117.139 214.375C116.946 215.485 116.768 216.6 116.607 217.725C116.338 219.61 116.12 221.516 115.953 223.433C117.855 225.24 119.9 227.04 122.078 228.817ZM156.254 202.064C159.824 202.443 163.279 203.176 166.608 204.263C166.584 204.091 166.558 203.92 166.53 203.752C165.832 199.405 164.052 195.812 161.238 193.069C161.192 193.023 161.144 192.977 161.096 192.933C159.457 195.499 157.638 198.096 155.662 200.688C155.863 201.147 156.061 201.605 156.254 202.064ZM140.628 217.25C141.783 217.119 142.991 216.951 144.25 216.746C143.734 216.261 143.182 215.808 142.598 215.387C141.94 216.023 141.284 216.644 140.628 217.25ZM76.463 247.093C76.3674 248.969 77.071 250.71 78.562 252.294C78.9029 252.654 79.2816 253.005 79.7002 253.342C78.5222 251.259 77.4438 249.174 76.463 247.093ZM96.1671 237.214C99.6654 238.78 103.606 239.612 107.952 239.704C106.499 237.661 105.344 235.231 104.489 232.402C102.661 231.766 100.907 230.836 99.2528 229.621C97.9293 232.003 96.8947 234.543 96.1652 237.214H96.1671ZM187.551 189.189C189.043 190.623 190.474 192.095 191.835 193.6C194.927 190.681 197.564 188.02 199.669 185.747C196.916 181.506 193.573 177.729 189.898 174.673C188.546 180.071 187.761 184.929 187.551 189.189ZM145.994 216.438C146.975 216.255 147.986 216.049 149.028 215.818C151.269 215.321 153.563 214.727 155.905 214.036C153.041 212.726 150.33 211.373 147.956 209.875C147.547 210.32 147.137 210.761 146.72 211.201C145.695 212.289 144.669 213.34 143.642 214.36C144.492 214.988 145.277 215.682 145.992 216.438H145.994ZM207.256 165.281C207.397 165.446 207.537 165.612 207.674 165.777C211.23 170.039 214.374 174.833 217.091 180.125C218.014 179.291 218.927 178.442 219.832 177.574C216.568 171.381 212.885 165.376 209.205 159.549C192.985 133.847 164.275 125.55 123.872 134.889C115.429 136.84 107.766 140.576 101.095 145.995C96.7253 149.544 92.7506 153.837 89.2244 158.807C92.0728 157.386 94.9652 156.331 97.8675 155.659C99.2927 154.555 100.78 153.484 102.329 152.445C114.741 144.11 130.771 138.336 146.307 136.604C157.859 135.318 168.344 136.343 176.325 139.425C176.353 139.425 176.379 139.427 176.407 139.429C181.924 139.731 187.276 141.917 192.314 145.929C197.877 150.36 203.052 157.119 207.254 165.283L207.256 165.281ZM158.006 213.396C158.254 213.318 158.505 213.238 158.754 213.159C157.747 209.881 156.577 206.629 155.252 203.423C154.709 203.375 154.161 203.333 153.611 203.301C152.128 205.145 150.571 206.976 148.947 208.786C151.614 210.443 154.727 211.932 158.006 213.396ZM187.496 191.156C187.494 191.621 187.498 192.079 187.51 192.53C187.554 194.176 187.697 195.73 187.944 197.187C188.925 196.305 189.872 195.437 190.779 194.589C189.726 193.424 188.63 192.277 187.496 191.156ZM210.04 171.232C210.937 173.352 211.771 175.541 212.53 177.785C213.1 179.465 213.612 181.135 214.069 182.779C214.709 182.234 215.345 181.683 215.976 181.123C214.186 177.598 212.207 174.298 210.04 171.232ZM109.77 239.698C109.993 239.692 110.218 239.684 110.445 239.676C111.681 239.622 112.949 239.514 114.249 239.353C114.139 237.276 114.083 235.197 114.083 233.127C114.005 233.14 113.928 233.154 113.852 233.166C111.215 233.597 108.641 233.504 106.188 232.905C107.089 235.568 108.287 237.839 109.772 239.698H109.77ZM160.127 212.708C162.318 211.974 164.542 211.162 166.801 210.274C166.895 208.73 166.887 207.253 166.777 205.845C163.598 204.76 160.299 204.009 156.886 203.595C158.102 206.599 159.186 209.641 160.127 212.708ZM168.27 209.687C169.55 209.169 170.839 208.626 172.137 208.059C170.865 207.439 169.568 206.876 168.246 206.376C168.308 207.421 168.318 208.524 168.27 209.687ZM201.477 185.899C201.947 186.659 202.4 187.435 202.832 188.221C203.247 188.971 203.636 189.725 204.002 190.481C207.018 188.415 209.969 186.188 212.845 183.806C212.355 181.975 211.792 180.115 211.161 178.25C209.707 173.955 207.985 169.873 206.054 166.098C201.708 161.009 196.761 156.718 191.269 153.265C192.054 155.443 192.479 157.793 192.541 160.303C201.517 166.519 207.429 174.713 206.831 178.446C206.592 179.938 204.082 183.03 201.477 185.901V185.899ZM173.849 207.301C174.736 206.904 175.629 206.493 176.522 206.074C177.348 198.238 177.69 190.164 177.533 182.593C174.812 180.558 171.968 178.645 169.025 176.873C167.552 181.426 165.101 186.475 161.877 191.684C162.003 191.8 162.125 191.916 162.244 192.033C164.851 194.573 167.405 198.585 168.111 204.782C170.074 205.494 171.988 206.336 173.849 207.301ZM178.065 205.34C178.368 205.195 178.671 205.047 178.976 204.899C181.711 202.653 184.284 200.446 186.666 198.33C186.15 195.772 185.949 192.921 186.062 189.767C183.838 187.658 181.48 185.638 179.008 183.718C179.11 190.703 178.797 198.092 178.065 205.34ZM192.788 194.673C193.334 195.297 193.864 195.924 194.381 196.552C196.5 195.291 198.628 193.981 200.765 192.62C201.445 192.187 202.119 191.748 202.791 191.299C202.41 190.503 202.001 189.709 201.567 188.919C201.21 188.273 200.841 187.633 200.458 187.004C199.029 188.536 197.656 189.929 196.703 190.88C195.451 192.127 194.143 193.396 192.788 194.673ZM184.617 202.032C185.49 201.574 186.361 201.105 187.239 200.626C187.171 200.395 187.103 200.157 187.039 199.92C186.242 200.626 185.435 201.33 184.617 202.032ZM188.552 199.904C190.071 199.064 191.59 198.192 193.119 197.296C192.668 196.752 192.206 196.207 191.734 195.662C190.607 196.712 189.451 197.767 188.273 198.822C188.359 199.19 188.452 199.551 188.552 199.904ZM168.17 211.287C168.111 212.005 168.031 212.744 167.927 213.504C169.269 212.516 170.616 211.503 171.97 210.463C172.621 209.963 173.263 209.466 173.901 208.967C173.865 208.947 173.831 208.929 173.796 208.911C171.902 209.753 170.026 210.545 168.17 211.287ZM115.684 239.151C119.77 238.521 124.144 237.362 128.782 235.68C127.458 234.758 126.149 233.809 124.855 232.833C123.845 232.073 122.86 231.307 121.897 230.533C119.673 231.574 117.54 232.346 115.526 232.827C115.52 234.93 115.572 237.041 115.682 239.151H115.684ZM160.683 214.577C160.952 214.695 161.224 214.812 161.493 214.932C162.416 215.335 163.342 215.738 164.267 216.149C164.937 215.674 165.611 215.191 166.285 214.705C166.446 213.741 166.576 212.799 166.669 211.878C164.598 212.682 162.557 213.42 160.544 214.094C160.592 214.256 160.638 214.415 160.683 214.577ZM111.015 241.097C111.273 241.354 111.538 241.601 111.809 241.839C112.67 242.593 113.593 243.239 114.568 243.788C114.476 242.79 114.398 241.797 114.334 240.799C113.206 240.939 112.1 241.039 111.017 241.097H111.015ZM161.184 216.374C161.329 216.919 161.471 217.462 161.608 218.004C162.033 217.713 162.459 217.418 162.884 217.121C162.318 216.871 161.75 216.622 161.184 216.374ZM130.437 235.062C133.901 233.731 137.507 232.119 141.244 230.226C141.4 230.146 141.553 230.068 141.709 229.988C140.593 226.535 139.385 223.016 138.089 219.531C132.986 223.967 127.983 227.459 123.338 229.831C124.12 230.449 124.915 231.066 125.728 231.678C127.277 232.845 128.85 233.974 130.439 235.062H130.437ZM147.083 217.703C148.091 218.996 148.925 220.436 149.569 222.01C149.973 223.004 150.35 224.003 150.697 225.009C153.86 223.128 157.075 221.079 160.333 218.874C160.303 218.749 160.271 218.621 160.239 218.497C160 217.54 159.747 216.584 159.479 215.63C158.955 215.401 158.433 215.172 157.915 214.94C154.984 215.85 152.122 216.616 149.341 217.23C148.58 217.4 147.828 217.558 147.083 217.703ZM143.01 229.314C145.121 228.209 147.26 227.024 149.425 225.759C149.06 224.686 148.662 223.618 148.229 222.557C147.539 220.865 146.608 219.341 145.456 218.004C143.353 218.373 141.32 218.647 139.369 218.824C140.672 222.32 141.888 225.849 143.01 229.314ZM82.4032 255.103C84.839 256.4 87.9367 257.446 91.5027 258.168C89.1586 255.028 87.4224 251.662 86.3081 248.085C85.3832 245.122 84.5759 242.17 83.8842 239.239C83.356 240.514 82.9115 241.811 82.5567 243.129C81.6457 246.499 81.3068 250.01 81.5361 253.635C81.7972 254.086 82.0623 254.535 82.3334 254.984C82.3573 255.024 82.3812 255.064 82.4052 255.103H82.4032ZM165.802 216.831C165.826 216.843 165.848 216.851 165.87 216.863C165.876 216.831 165.882 216.801 165.89 216.769C165.86 216.791 165.832 216.811 165.802 216.831ZM71.9063 254.108C74.7029 257.968 78.1853 261.282 82.154 264.137C81.1972 261.21 80.5613 258.337 80.2464 255.524C79.1899 254.842 78.271 254.096 77.5095 253.288C75.2072 250.844 74.4757 247.941 75.3966 244.895C75.4046 244.865 75.4145 244.835 75.4245 244.807C74.1627 241.916 73.0963 239.046 72.2312 236.217C71.0372 241.942 70.9355 248.019 71.9083 254.108H71.9063ZM93.6396 258.551C94.2695 258.651 94.9113 258.74 95.5632 258.822C94.2974 255.997 93.5818 252.672 93.4383 248.881C93.3506 246.567 93.4482 244.306 93.7233 242.112C90.6038 240.372 87.7493 239.217 85.2875 238.904C85.9712 241.805 86.7706 244.721 87.6855 247.654C88.9014 251.548 90.8908 255.189 93.6376 258.551H93.6396ZM116.092 244.546C117.157 245.015 118.277 245.384 119.441 245.663C122.601 243.471 126.155 241.276 130.098 239.084C130.791 238.697 131.497 238.333 132.215 237.986C131.555 237.559 130.899 237.124 130.245 236.682C125.106 238.609 120.271 239.919 115.77 240.602C115.855 241.918 115.963 243.233 116.092 244.546ZM116.268 246.19C116.33 246.732 116.395 247.277 116.463 247.818C116.934 247.463 117.412 247.109 117.904 246.754C117.348 246.587 116.802 246.399 116.268 246.19ZM133.775 237.272C136.724 235.989 139.833 235.012 143.048 234.248C142.757 233.3 142.46 232.346 142.155 231.385C142.07 231.429 141.984 231.473 141.898 231.517C138.454 233.26 135.117 234.772 131.896 236.045C132.522 236.462 133.147 236.869 133.777 237.272H133.775ZM95.2961 241.324C100.054 244.085 105.327 248.065 110.85 252.512C112.156 251.289 113.587 250.066 115.14 248.839C114.99 247.734 114.857 246.625 114.739 245.515C113.356 244.831 112.056 243.977 110.858 242.93C110.234 242.383 109.648 241.795 109.096 241.158C104.182 241.2 99.7392 240.356 95.8083 238.639C95.605 239.52 95.4356 240.418 95.2961 241.324ZM161.973 219.509C162.455 221.548 162.872 223.584 163.227 225.613C163.815 224.161 164.333 222.671 164.78 221.143C165.063 220.179 165.316 219.231 165.541 218.302C165.172 218.134 164.802 217.968 164.431 217.805C163.61 218.381 162.79 218.95 161.973 219.509ZM144.464 233.926C146.706 233.44 148.994 233.051 151.311 232.728C150.934 230.868 150.46 229.013 149.883 227.167C147.717 228.428 145.574 229.609 143.459 230.713C143.802 231.792 144.137 232.865 144.462 233.926H144.464ZM97.2176 259.002C99.6914 259.237 102.259 259.333 104.874 259.295C106.204 257.378 107.846 255.453 109.798 253.525C104.643 249.384 99.6176 245.593 95.0907 242.898C94.8795 244.827 94.8097 246.804 94.8854 248.827C95.0349 252.807 95.8143 256.203 97.2176 259.002ZM167.218 217.476C169.629 218.585 172.006 219.75 174.274 221.031C174.974 217.562 175.564 213.923 176.044 210.198C175.787 210.04 175.528 209.887 175.269 209.735C174.463 210.368 173.658 210.992 172.853 211.612C171.095 212.961 169.344 214.268 167.606 215.533C167.493 216.165 167.363 216.813 167.218 217.476ZM95.0728 260.205C96.2409 261.479 97.5226 262.708 98.9179 263.897C97.9233 262.842 97.0602 261.659 96.3306 260.35C95.906 260.306 95.4874 260.257 95.0708 260.205H95.0728ZM84.1713 265.519C86.3021 266.916 88.5546 268.195 90.9008 269.364C87.6516 265.545 84.6218 261.412 81.9188 257.076C82.3553 259.832 83.1048 262.649 84.1713 265.519ZM74.4378 259.379C76.0624 261.715 77.7667 263.945 79.5348 266.038C81.5381 268.408 83.6131 270.591 85.732 272.564C84.8928 270.952 84.1075 269.272 83.4038 267.538C83.2603 267.187 83.1228 266.836 82.9892 266.485C79.752 264.322 76.8976 261.948 74.4378 259.379ZM152.748 232.536C155.204 232.225 157.687 231.979 160.175 231.768C160.893 230.559 161.554 229.318 162.158 228.045C161.774 225.502 161.285 222.942 160.693 220.376C157.472 222.547 154.293 224.56 151.165 226.415C151.809 228.444 152.337 230.491 152.748 232.536ZM98.0728 260.512C99.1133 262.15 100.405 263.546 101.946 264.695C102.458 263.379 103.122 262.056 103.933 260.733C101.928 260.735 99.9664 260.661 98.0708 260.512H98.0728ZM161.931 231.624C162.164 231.604 162.396 231.586 162.627 231.568C162.589 231.237 162.549 230.906 162.507 230.573C162.32 230.926 162.129 231.275 161.931 231.624ZM111.978 253.424C113.497 254.655 115.034 255.919 116.583 257.198C116.116 254.978 115.714 252.739 115.377 250.491C114.161 251.471 113.029 252.448 111.978 253.424ZM106.674 259.247C109.668 259.131 112.712 258.842 115.744 258.383C114.133 257.051 112.522 255.728 110.922 254.431C109.279 256.043 107.862 257.649 106.676 259.247H106.674ZM121.431 246.054C127.728 247.022 135.131 245.797 142.522 244.013C139.546 242.459 136.58 240.753 133.658 238.91C132.685 239.353 131.732 239.832 130.803 240.348C127.375 242.256 124.251 244.157 121.431 246.054ZM144.655 243.485C144.992 243.399 145.329 243.313 145.664 243.225C144.992 240.797 144.26 238.252 143.473 235.636C140.636 236.307 137.89 237.144 135.272 238.214C138.37 240.135 141.509 241.897 144.657 243.485H144.655ZM153.013 233.962C153.374 236.047 153.615 238.132 153.735 240.199C155.802 238.046 157.63 235.746 159.218 233.304C157.137 233.49 155.066 233.703 153.013 233.962ZM188.999 201.308C189.539 202.822 190.223 204.193 191.05 205.414C193.892 209.615 198.156 211.766 202.721 212.977C200.757 208.101 197.849 203.227 194.042 198.433C192.353 199.425 190.671 200.383 188.999 201.308ZM147.061 242.858C148.65 242.437 150.226 242.006 151.781 241.581C151.971 241.531 152.158 241.48 152.347 241.428C152.262 239.022 152.004 236.59 151.578 234.152C149.311 234.467 147.075 234.846 144.884 235.317C145.668 237.917 146.393 240.444 147.061 242.858ZM164.068 231.459C165.079 231.383 166.087 231.311 167.094 231.237C168.693 231.122 170.275 231.006 171.838 230.884C172.625 228.265 173.335 225.462 173.963 222.521C171.697 221.22 169.311 220.037 166.881 218.914C166.669 219.77 166.432 220.65 166.169 221.55C165.487 223.876 164.648 226.114 163.651 228.267C163.809 229.334 163.946 230.397 164.068 231.459ZM147.629 244.933C147.81 245.017 147.996 245.104 148.179 245.188C148.219 245.156 148.261 245.124 148.301 245.095C148.965 244.574 149.612 244.043 150.24 243.502C149.315 243.754 148.383 244.007 147.446 244.255C147.507 244.482 147.569 244.707 147.629 244.933ZM204.433 213.388C204.923 213.494 205.416 213.589 205.908 213.679C207.622 207.6 206.703 200.101 203.404 192.63C202.787 193.039 202.165 193.444 201.543 193.841C199.452 195.172 197.371 196.454 195.298 197.689C199.376 202.854 202.44 208.117 204.433 213.388ZM118.225 257.966C119.681 257.701 121.13 257.396 122.561 257.051C131.607 254.876 139.843 251.217 146.529 246.419C146.487 246.264 146.445 246.108 146.403 245.95C145.765 245.647 145.127 245.336 144.49 245.019C135.842 247.193 127.046 248.777 119.73 247.219C118.666 247.967 117.651 248.713 116.683 249.46C117.089 252.314 117.603 255.155 118.223 257.966H118.225ZM155.329 240.62C158.056 239.89 160.695 239.219 163.169 238.711C163.097 236.825 162.968 234.924 162.778 233.009C162.196 233.055 161.612 233.101 161.03 233.148C159.398 235.798 157.496 238.29 155.329 240.62ZM94.1798 270.904C96.3226 271.853 98.5312 272.721 100.782 273.517C100.548 271.746 100.602 269.958 100.943 268.159C100.989 267.921 101.039 267.682 101.093 267.444C97.8814 265.11 95.1346 262.587 92.8622 259.879C89.4855 259.317 86.4237 258.479 83.8244 257.386C86.9221 262.22 90.4283 266.782 94.1798 270.904ZM205.005 214.986C205.085 215.225 205.163 215.461 205.238 215.698C205.316 215.493 205.394 215.285 205.468 215.074C205.312 215.046 205.159 215.016 205.005 214.986ZM173.389 230.758C176.831 230.469 180.156 230.122 183.29 229.613C181.001 227.175 178.267 225.121 175.283 223.301C174.706 225.947 174.073 228.436 173.389 230.758ZM149.662 245.863C150.521 246.244 151.38 246.613 152.238 246.968C152.323 245.837 152.371 244.694 152.377 243.542C151.508 244.338 150.601 245.11 149.662 245.863ZM164.604 238.431C166.291 238.124 167.887 237.907 169.366 237.815C170.08 236.131 170.75 234.308 171.374 232.37C169.992 232.478 168.597 232.58 167.198 232.682C166.207 232.753 165.214 232.825 164.222 232.899C164.405 234.756 164.532 236.602 164.604 238.431ZM207.343 213.917C209.151 214.192 210.949 214.381 212.669 214.551C212.759 211.999 213.236 209.428 214.246 206.838C215.925 202.537 215.484 194.39 213.244 185.352C210.437 187.652 207.561 189.807 204.622 191.81C208.111 199.605 209.105 207.483 207.343 213.917ZM184.978 229.32C187.398 228.869 189.692 228.305 191.825 227.574C192.272 227.421 192.708 227.263 193.133 227.098C192.912 226.758 192.686 226.423 192.459 226.088C188.255 219.908 183.15 214.828 177.397 211.056C176.893 214.852 176.291 218.443 175.599 221.801C179.13 223.91 182.353 226.338 184.978 229.32ZM194.49 226.533C199.087 224.488 202.302 221.613 204.327 217.719C204.074 216.793 203.783 215.862 203.452 214.922C203.418 214.826 203.385 214.731 203.351 214.635C198.146 213.414 193.165 211.122 189.852 206.226C188.991 204.955 188.275 203.553 187.707 202.018C185.028 203.477 182.373 204.849 179.746 206.132C179.104 206.661 178.458 207.186 177.81 207.708C177.744 208.287 177.677 208.863 177.605 209.438C177.605 209.446 177.605 209.456 177.601 209.464C183.752 213.378 189.2 218.725 193.655 225.274C193.938 225.689 194.217 226.11 194.49 226.533ZM103.174 265.527C104.487 266.335 105.956 266.988 107.577 267.488C110.994 268.542 115.072 268.863 119.581 268.484C118.654 265.629 117.831 262.664 117.121 259.626C113.252 260.264 109.383 260.622 105.649 260.709C104.589 262.325 103.762 263.931 103.174 265.527ZM96.6615 273.531C98.5253 275.428 100.439 277.214 102.382 278.87C101.806 277.647 101.374 276.414 101.083 275.171C99.5638 274.646 98.0907 274.1 96.6615 273.531ZM164.65 239.894C164.7 241.966 164.676 244.019 164.58 246.044C164.905 245.651 165.212 245.256 165.501 244.865C166.645 243.309 167.714 241.442 168.701 239.315C167.433 239.427 166.077 239.628 164.65 239.894ZM121.058 268.336C122.876 268.127 124.758 267.808 126.687 267.381C124.112 265.31 121.514 263.161 118.951 261.039C119.579 263.542 120.286 265.982 121.06 268.336H121.058ZM153.641 247.536C156.037 248.488 158.417 249.326 160.757 250.044C161.568 249.3 162.328 248.552 163.03 247.806C163.203 245.304 163.265 242.758 163.211 240.179C160.283 240.791 157.101 241.633 153.818 242.527C153.84 244.215 153.78 245.887 153.641 247.536ZM148.181 247.004C149.108 250.517 149.891 253.691 150.523 256.356C151.279 253.827 151.805 251.185 152.1 248.472C150.86 247.965 149.614 247.429 148.369 246.864C148.307 246.91 148.243 246.958 148.181 247.004ZM162.364 250.519C162.503 250.557 162.643 250.597 162.782 250.637C162.802 250.443 162.822 250.252 162.84 250.058C162.685 250.212 162.525 250.365 162.364 250.519ZM153.489 249.029C153.18 251.676 152.656 254.26 151.917 256.739C154.705 254.964 157.263 253.082 159.497 251.163C157.514 250.533 155.509 249.821 153.489 249.029ZM128.473 266.96C131.975 266.08 135.617 264.859 139.319 263.307C142.865 261.821 146.292 260.101 149.475 258.232C148.823 255.421 147.968 251.897 146.923 247.913C140.168 252.664 131.924 256.288 122.898 258.459C121.632 258.762 120.362 259.036 119.088 259.277C119.12 259.303 119.154 259.331 119.186 259.357C122.258 261.902 125.389 264.496 128.471 266.96H128.473ZM88.9652 275.385C91.9851 277.84 95.0648 279.865 98.1246 281.39C100.734 282.69 103.325 283.638 105.883 284.232C105.815 284.153 105.749 284.073 105.681 283.993C105.257 283.476 104.858 282.958 104.487 282.437C100.642 279.476 96.8847 275.997 93.3406 272.131C90.7373 270.97 88.3054 269.729 86.057 268.408C85.73 268.217 85.4071 268.023 85.0882 267.83C86.2264 270.503 87.5579 273.036 88.9652 275.385ZM103.536 267.389C103.7 267.498 103.863 267.608 104.029 267.716C109.257 271.163 115.504 274.034 122.445 276.201C121.59 274.176 120.789 272.067 120.047 269.89C115.211 270.331 110.824 270.004 107.15 268.871C105.859 268.474 104.653 267.977 103.536 267.389ZM170.953 237.767C171.423 237.771 171.88 237.789 172.322 237.825C175.801 238.106 178.498 240.119 180.122 243.646C180.633 244.755 181.029 245.994 181.31 247.343C183.443 245.93 185.518 244.707 187.518 243.684C188.303 238.784 187.241 234.395 184.408 230.886C180.78 231.521 176.913 231.92 172.934 232.247C172.312 234.226 171.651 236.069 170.953 237.767ZM102.333 274.052C109.309 276.394 116.663 278.072 123.831 279.311C123.619 278.86 123.41 278.405 123.203 277.944C115.658 275.7 108.869 272.641 103.232 268.925C102.942 268.735 102.657 268.544 102.376 268.35C102.37 268.376 102.366 268.402 102.36 268.428C102.004 270.313 101.994 272.191 102.331 274.052H102.333ZM164.196 251.016C167.558 251.887 170.819 252.492 173.929 252.805C175.982 251.127 178.011 249.601 179.997 248.229C179.74 246.75 179.341 245.41 178.809 244.251C177.395 241.184 175.175 239.508 172.205 239.267C171.613 239.219 170.987 239.205 170.331 239.221C169.193 241.775 167.967 243.957 166.665 245.723C166.006 246.617 165.26 247.516 164.435 248.414C164.369 249.288 164.289 250.156 164.196 251.016ZM189.084 242.914C193.005 241.069 196.585 240.037 199.635 239.908C198.094 235.866 196.173 231.965 193.918 228.333C191.484 229.3 188.825 230.026 186.005 230.587C188.568 234.07 189.615 238.274 189.084 242.914ZM129.888 268.083C131.812 269.601 133.71 271.055 135.557 272.404C136.606 273.17 137.7 273.815 138.828 274.345C142.634 271.109 145.691 267.251 147.932 262.854C148.396 261.942 148.827 261.005 149.218 260.047C146.26 261.735 143.116 263.285 139.877 264.644C136.484 266.064 133.134 267.213 129.888 268.083ZM110.567 284.927C113.234 285.094 115.857 284.865 118.431 284.234C120.811 283.654 123.083 282.958 125.24 282.15C125.029 281.747 124.821 281.34 124.614 280.927C119.336 280.045 113.948 278.93 108.637 277.487C106.604 276.937 104.635 276.348 102.729 275.724C103.295 277.647 104.234 279.55 105.544 281.423C107.206 282.696 108.883 283.865 110.565 284.927H110.567ZM126.595 281.621C126.817 281.533 127.036 281.441 127.255 281.35C126.966 281.306 126.675 281.26 126.384 281.214C126.454 281.35 126.526 281.487 126.595 281.621ZM129.707 280.24C129.99 280.103 130.271 279.963 130.548 279.819C128.674 279.416 126.837 278.968 125.039 278.471C125.216 278.852 125.395 279.231 125.579 279.604C126.966 279.831 128.342 280.043 129.707 280.24ZM124.259 276.747C126.926 277.519 129.689 278.19 132.528 278.752C134.136 277.83 135.651 276.831 137.074 275.754C137.248 275.622 137.421 275.488 137.591 275.355C136.59 274.842 135.627 274.247 134.702 273.573C132.561 272.011 130.353 270.307 128.12 268.532C125.858 269.072 123.651 269.473 121.524 269.733C122.368 272.179 123.284 274.525 124.257 276.747H124.259ZM201.184 239.921C201.622 239.951 202.047 240.001 202.46 240.073C203.313 238.371 204.042 236.464 204.62 234.327C205.862 229.737 205.93 224.851 204.824 219.75C202.523 223.423 199.234 225.962 195.262 227.76C197.612 231.576 199.603 235.676 201.184 239.921ZM176.012 252.973C177.429 253.057 178.886 253.08 180.356 253.023C180.368 251.909 180.32 250.84 180.216 249.823C178.829 250.798 177.425 251.85 176.012 252.973ZM164.022 252.464C163.797 254.228 163.514 255.965 163.173 257.673C162.721 259.931 162.168 262.112 161.523 264.207C162.934 262.888 164.363 261.519 165.808 260.101C168.009 257.94 170.208 255.933 172.386 254.086C169.691 253.747 166.891 253.2 164.022 252.464ZM181.815 252.939C182.632 252.875 183.449 252.785 184.264 252.666C185.59 250.252 186.569 247.834 187.145 245.501C185.329 246.479 183.467 247.61 181.574 248.887C181.747 250.162 181.829 251.516 181.815 252.939ZM151.149 259.06C151.382 260.085 151.586 260.995 151.755 261.775C152.417 264.789 153.749 267.345 155.732 269.414C156.918 268.39 158.116 267.329 159.33 266.228C160.319 263.449 161.132 260.494 161.754 257.388C162.103 255.652 162.388 253.884 162.613 252.089C162.117 251.951 161.616 251.808 161.118 251.66C158.293 254.168 154.929 256.618 151.217 258.872C151.195 258.934 151.171 258.998 151.149 259.06ZM214.117 216.145C214.286 222.258 216.606 228.329 218.873 234.264C218.905 234.345 218.937 234.427 218.966 234.509C222.997 228.604 224.582 223.698 223.806 219.561C223.352 217.137 219.317 216.652 214.117 216.145ZM186.068 252.348C191.644 251.195 196.966 248.468 200.731 243.004C200.548 242.449 200.361 241.897 200.163 241.346C197.217 241.374 193.577 242.371 189.497 244.308C189.27 244.416 189.043 244.526 188.815 244.64C188.755 244.943 188.69 245.248 188.618 245.557C188.1 247.77 187.237 250.058 186.068 252.348ZM181.771 254.399C181.729 255.223 181.657 256.067 181.556 256.927C182.195 256.043 182.791 255.149 183.342 254.254C182.825 254.311 182.301 254.361 181.771 254.399ZM140.313 274.972C142.504 275.794 144.808 276.22 147.175 276.306C149.588 274.511 152.072 272.53 154.628 270.359C152.493 268.113 151.058 265.346 150.344 262.084C150.298 261.876 150.25 261.661 150.2 261.436C149.893 262.14 149.567 262.832 149.22 263.512C146.999 267.867 144.011 271.712 140.313 274.972ZM117.719 288.741C117.821 288.749 117.92 288.755 118.022 288.761C121.046 288.921 124.417 288.358 128.092 287.091C127.413 286.03 126.741 284.905 126.083 283.718C126.031 283.626 125.979 283.53 125.928 283.436C123.663 284.292 121.275 285.028 118.772 285.641C116.892 286.102 114.986 286.359 113.061 286.417C114.629 287.301 116.182 288.075 117.717 288.741H117.719ZM156.78 270.409C156.984 270.585 157.195 270.758 157.41 270.926C157.675 270.355 157.933 269.777 158.18 269.188C157.717 269.595 157.249 270.002 156.78 270.409ZM217.764 181.466C220.635 187.301 223.001 193.721 224.841 200.684C227.761 211.724 229.077 222.006 228.794 231.497C231.209 223.054 231.614 214.413 230.043 205.458C228.425 196.233 224.893 187.395 220.525 178.91C219.614 179.778 218.691 180.632 217.764 181.466ZM134.676 279.153C136.987 279.56 139.323 279.893 141.673 280.151C142.875 279.367 144.097 278.531 145.339 277.643C143.13 277.404 141.027 276.867 139.056 276.037C138.693 276.332 138.322 276.623 137.947 276.907C136.905 277.697 135.815 278.445 134.676 279.153ZM132.203 280.586C134.726 280.925 137.196 281.216 139.586 281.471C139.636 281.441 139.686 281.411 139.735 281.38C137.419 281.088 135.119 280.723 132.842 280.288C132.819 280.282 132.795 280.278 132.771 280.274C132.579 280.38 132.392 280.484 132.201 280.586H132.203ZM129.48 286.587C132.019 285.611 134.698 284.314 137.509 282.706C135.037 282.427 132.5 282.11 129.916 281.743C129.059 282.15 128.18 282.537 127.281 282.904C127.995 284.2 128.728 285.429 129.478 286.587H129.48ZM149.582 276.278C151.38 276.175 153.2 275.887 155.022 275.442C155.636 274.419 156.218 273.358 156.766 272.258C156.386 271.971 156.019 271.672 155.666 271.361C153.681 273.046 151.648 274.696 149.582 276.278ZM203.893 240.434C204.371 240.594 204.824 240.791 205.252 241.023C206.805 241.867 208.406 243.405 209.169 246.21C212.482 242.748 215.307 239.516 217.649 236.358C217.754 236.215 217.86 236.073 217.962 235.931C217.816 235.55 217.669 235.165 217.523 234.78C215.183 228.656 212.789 222.391 212.658 216.003C210.806 215.824 208.866 215.62 206.911 215.317C206.604 216.219 206.255 217.069 205.864 217.873C207.395 223.768 207.449 229.416 206.016 234.705C205.458 236.771 204.748 238.681 203.893 240.434ZM157.01 274.894C157.865 274.632 158.718 274.335 159.565 274.008C159.262 273.852 158.965 273.689 158.674 273.521C158.435 273.382 158.198 273.238 157.968 273.09C157.657 273.703 157.339 274.303 157.01 274.894ZM161.367 273.266C167.552 270.545 173.429 266.222 178.051 261.202C178.637 260.566 179.201 259.919 179.742 259.267C180.037 257.619 180.226 256.015 180.308 254.477C178.414 254.545 176.435 254.487 174.372 254.301C171.872 256.37 169.346 258.657 166.821 261.134C164.845 263.073 162.752 265.064 160.572 267.047C159.978 268.685 159.322 270.263 158.606 271.782C158.865 271.949 159.129 272.111 159.4 272.268C160.024 272.631 160.679 272.963 161.367 273.266ZM202.32 243.225C203.145 245.827 203.815 248.468 204.321 251.121C205.591 249.867 206.807 248.648 207.965 247.457C207.521 245.029 206.379 243.281 204.563 242.296C204.146 242.07 203.696 241.885 203.213 241.739C202.93 242.25 202.631 242.744 202.32 243.225ZM121.325 290.118C123.27 290.756 125.18 291.207 127.046 291.472C128.559 291.688 130.03 291.775 131.461 291.74C130.6 290.702 129.749 289.563 128.91 288.33C126.312 289.252 123.771 289.872 121.325 290.118ZM143.915 280.374C146.355 280.592 148.803 280.731 151.255 280.789C152.196 279.654 153.089 278.451 153.93 277.18C151.741 277.621 149.62 277.82 147.579 277.783C146.365 278.676 145.141 279.544 143.915 280.374ZM141.89 281.711C144.669 281.992 147.322 282.227 149.808 282.437C149.881 282.357 149.953 282.279 150.025 282.202C147.344 282.108 144.661 281.922 142 281.641C141.964 281.665 141.928 281.689 141.89 281.711ZM133.261 291.624C136.305 291.313 139.145 290.403 141.749 288.905C144.175 287.506 146.431 285.788 148.498 283.778C145.773 283.544 142.887 283.281 139.885 282.964C136.668 284.915 133.448 286.573 130.301 287.809C131.268 289.21 132.256 290.487 133.261 291.624ZM91.2237 278.914C93.3147 281.992 95.4336 284.637 97.2376 286.712C104.79 295.408 118.967 295.893 133.622 294.11C133.307 293.796 132.994 293.469 132.681 293.13C130.803 293.266 128.858 293.192 126.849 292.907C123.785 292.472 120.617 291.554 117.376 290.168C113.633 289.856 110.378 288.478 107.665 286.058C104.314 285.519 100.913 284.394 97.4847 282.686C95.3977 281.645 93.3047 280.382 91.2257 278.914H91.2237ZM219.596 236.153C220.856 239.487 222.006 242.728 222.638 245.869C224.364 242.862 225.82 239.84 227.008 236.793C228.072 225.998 226.888 214.066 223.447 201.055C221.667 194.326 219.395 188.117 216.646 182.465C215.931 183.094 215.209 183.714 214.483 184.325C216.975 193.985 217.446 202.625 215.596 207.365C214.641 209.809 214.198 212.253 214.123 214.691C219.995 215.261 224.578 215.8 225.231 219.293C226.202 224.472 223.852 230.154 219.596 236.153ZM163.261 273.994C166.211 274.984 169.616 275.482 173.311 275.45C173.489 275.45 173.668 275.446 173.845 275.444C176.203 271.199 178.013 266.66 179.124 262.178C179.124 262.18 179.12 262.182 179.12 262.184C174.577 267.115 169.004 271.239 163.261 273.994ZM204.63 252.851C204.792 253.841 204.929 254.828 205.043 255.816C205.22 257.352 205.334 258.85 205.388 260.304C206.506 258.519 207.274 256.658 207.656 254.758C208.065 252.733 208.234 250.916 208.171 249.322C207.018 250.493 205.836 251.668 204.63 252.851ZM153.091 280.819C159.282 280.867 165.449 280.408 171.404 279.444C171.96 278.612 172.496 277.763 173.008 276.901C168.679 276.901 164.722 276.197 161.385 274.842C160.115 275.381 158.844 275.849 157.578 276.244C157.03 276.414 156.487 276.57 155.947 276.711C155.056 278.158 154.103 279.528 153.091 280.819ZM175.532 275.373C179.399 275.129 183.36 274.343 187.135 273.09C187.663 272.236 188.193 271.359 188.734 270.463C191.642 265.645 194.939 260.185 199.719 255.596C200.877 254.485 201.995 253.404 203.078 252.344C202.631 249.789 202.027 247.241 201.274 244.725C199.32 247.303 196.92 249.39 194.086 250.966C194.08 250.97 194.074 250.972 194.066 250.976C191.441 252.432 188.472 253.44 185.179 253.994C184.035 255.989 182.668 257.972 181.101 259.895C181.033 260.257 180.96 260.622 180.882 260.987C179.853 265.817 178.007 270.75 175.532 275.373ZM151.622 282.589C152.305 282.644 152.973 282.7 153.627 282.754C159.727 283.253 164.542 283.648 167.321 284.28C167.445 284.308 167.564 284.334 167.686 284.36C168.657 283.219 169.514 282.114 170.259 281.086C164.279 281.972 158.102 282.361 151.917 282.249C151.819 282.363 151.721 282.477 151.622 282.589ZM189.308 272.31C191.363 271.514 193.344 270.579 195.202 269.515C198.862 267.425 201.824 264.971 203.967 262.297C203.977 260.28 203.857 258.166 203.606 255.981C203.534 255.353 203.45 254.722 203.359 254.094C202.488 254.94 201.607 255.79 200.719 256.642C196.077 261.096 192.834 266.469 189.971 271.211C189.75 271.58 189.529 271.945 189.308 272.31ZM173.349 279.109C175.137 278.784 176.905 278.413 178.645 277.994C180.876 277.459 183.043 276.855 185.14 276.183C185.413 275.784 185.684 275.377 185.953 274.962C182.243 276.053 178.406 276.707 174.704 276.863C174.27 277.623 173.817 278.371 173.349 279.109ZM222.999 248.109C223.264 250.369 223.198 252.572 222.644 254.708C222.536 255.121 222.409 255.542 222.263 255.973C224.103 251.588 225.449 246.946 226.296 242.048C225.315 244.077 224.217 246.098 222.999 248.109ZM73.2398 260.187C73.3315 260.516 73.4252 260.843 73.5229 261.17C76.5527 271.329 82.3593 280.34 90.3147 287.229C99.3525 295.055 110.601 299.781 123.743 301.278C131.262 302.132 137.822 301.507 143.501 299.973C141.641 299.361 139.869 298.59 138.199 297.661C137.134 297.07 136.068 296.31 135.003 295.394C119.545 297.397 104.334 297.09 96.1432 287.662C93.6795 284.825 90.6337 280.943 87.8569 276.344C84.6098 273.681 81.4364 270.531 78.4305 266.972C76.6285 264.841 74.8923 262.569 73.2378 260.187H73.2398ZM135.466 293.874C141.537 293.062 147.649 291.905 153.362 290.822C156.83 290.166 160.133 289.541 163.185 289.038C164.435 287.891 165.569 286.736 166.596 285.605C163.857 285.044 159.256 284.667 153.509 284.197C152.497 284.113 151.452 284.027 150.38 283.937C147.996 286.411 145.349 288.5 142.47 290.158C139.995 291.586 137.323 292.51 134.481 292.933C134.808 293.262 135.135 293.575 135.464 293.874H135.466ZM205.42 262.792C205.406 263.967 205.348 265.106 205.248 266.208C208.922 263.516 212.131 260.492 214.828 257.164C217.348 254.052 219.57 250.932 221.498 247.792C221.045 244.53 219.897 241.099 218.576 237.549C216.034 240.931 212.931 244.408 209.51 247.947C209.747 249.831 209.656 252.163 209.074 255.044C208.511 257.835 207.234 260.432 205.42 262.792ZM187.368 275.434C193.44 273.3 198.902 270.581 203.654 267.337C203.765 266.447 203.847 265.529 203.899 264.584C199.962 268.815 194.281 272.151 188.102 274.277C187.856 274.668 187.613 275.053 187.368 275.434ZM146.05 299.205C152.118 297.188 157.093 294.14 161.08 290.866C158.718 291.281 156.22 291.754 153.631 292.244C148.305 293.254 142.64 294.325 136.971 295.127C137.615 295.614 138.258 296.039 138.902 296.396C141.105 297.623 143.501 298.561 146.048 299.205H146.05ZM169.332 284.649C176.08 285.569 180.178 282.724 183.728 278.132C182.179 278.591 180.599 279.015 178.982 279.403C176.778 279.931 174.531 280.388 172.251 280.771C171.996 281.144 171.734 281.513 171.469 281.88C170.837 282.756 170.126 283.688 169.332 284.649ZM205.027 268.147C204.365 272.813 202.892 276.649 200.676 279.269C200.638 279.313 200.6 279.357 200.562 279.403C201.515 278.7 202.47 277.96 203.426 277.184C212.44 269.864 219.6 260.685 221.245 254.345C221.594 253.001 221.727 251.614 221.695 250.192C219.987 252.829 218.071 255.457 215.951 258.076C212.915 261.821 209.249 265.192 205.027 268.147ZM165.691 288.649C170.351 287.969 174.298 287.678 177.16 288.163C181.892 288.965 188.277 287.085 195.132 283.015C196.715 281.519 198.2 279.955 199.571 278.333C201.377 276.199 202.659 273.068 203.357 269.274C198.29 272.576 192.483 275.307 186.047 277.41C181.861 283.4 177.027 287.502 168.232 285.942C167.453 286.832 166.606 287.74 165.691 288.649ZM173.249 296.695C179.285 294.413 185.086 291.153 190.213 287.209C185.231 289.38 180.675 290.225 176.919 289.589C173.823 289.064 169.273 289.519 163.847 290.397C159.928 293.936 154.941 297.369 148.765 299.773C154.857 300.789 161.694 300.264 168.824 298.179L168.802 298.11C170.307 297.661 171.79 297.188 173.249 296.695ZM188.241 290.435C189.355 289.868 190.446 289.284 191.514 288.689C200.235 283.817 207.487 277.916 213.07 271.149C215.636 268.039 217.856 264.743 219.734 261.264C216.437 266.788 210.929 272.955 204.337 278.309C201.499 280.613 198.686 282.595 195.949 284.232C193.571 286.463 190.982 288.544 188.241 290.435ZM192.054 290.046C186.511 293.126 180.368 295.813 173.732 298.06C172.767 298.423 171.798 298.764 170.823 299.077C161.959 301.936 153.46 302.469 146.122 300.713C139.787 302.758 132.31 303.708 123.579 302.716C110.142 301.186 98.6309 296.344 89.3679 288.324C81.2032 281.254 75.2451 272.007 72.1355 261.585C71.6491 259.953 71.2385 258.311 70.9036 256.669C65.697 248.454 61.4812 239.211 58.8619 230.078C54.8234 215.999 54.7855 203.162 58.7563 193.925C62.9722 184.121 69.1535 174.994 76.164 168.227C79.457 165.047 82.9095 162.398 86.4477 160.315C90.4303 154.232 95.0369 149.049 100.186 144.87C107.029 139.312 114.889 135.479 123.55 133.478C164.614 123.986 193.846 132.497 210.431 158.777C214.053 164.516 217.681 170.428 220.916 176.526C225.638 171.9 230.129 166.821 234.365 161.308C242.304 150.984 249.371 139.134 255.373 126.089C265.594 103.87 269.21 85.6701 269.246 85.4885L270.666 85.7658C270.63 85.9494 266.98 104.317 256.686 126.693C250.641 139.838 243.516 151.782 235.513 162.192C231.142 167.878 226.501 173.109 221.618 177.865C226.134 186.577 229.798 195.672 231.473 205.21C233.41 216.261 232.417 226.834 228.431 237.14C227.079 250.525 222.325 262.206 214.184 272.073C208.487 278.98 201.096 284.995 192.22 289.954C192.164 289.986 192.108 290.016 192.054 290.048V290.046Z" fill="#080435"/>
<path d="M373.298 130.647C360.507 136.032 335.198 138.833 314.401 138.169C301.441 137.754 285.542 140.958 279.486 142.528C274.73 143.766 256.312 150.595 252.193 149.207C249.771 148.383 248.998 139.471 250.678 135.932C254.28 128.341 265.066 123.318 283.678 117.323C301.419 111.611 308.043 105.586 312.103 98.474C313.502 96.0221 343.247 103.15 335.315 85.0077C331.331 75.8946 354.72 55.0807 360.017 58.4184C403.84 86.0451 373.298 130.645 373.298 130.645V130.647Z" fill="#FFA089"/>
<path d="M434.952 124.128C434.952 124.128 420.289 121.279 427.146 106.468C438.534 81.8756 413.59 85.9274 420.062 68.932C423.215 60.6468 421.589 56.4633 413.143 48.4095C406.864 42.4205 417.026 36.0125 423.156 36.2719C429.285 36.5292 440.015 29.046 440.015 29.046C440.015 29.046 483.28 44.4135 484.797 74.121C486.314 103.829 471.017 132.706 471.017 132.706L434.952 124.13V124.128Z" fill="#FF6760"/>
</g>
</svg>
