<svg width="36" height="31" viewBox="0 0 36 31" fill="none" xmlns="http://www.w3.org/2000/svg">
<path d="M34.0416 2.37489C32.6451 3.35997 31.0988 4.11339 29.4624 4.60614C28.5841 3.59626 27.4169 2.88049 26.1185 2.55562C24.8202 2.23075 23.4533 2.31247 22.203 2.78972C20.9526 3.26697 19.8789 4.11673 19.1272 5.22406C18.3755 6.3314 17.982 7.64288 17.9999 8.98114V10.4395C15.4371 10.5059 12.8976 9.93754 10.6076 8.78492C8.31767 7.6323 6.3483 5.93124 4.87492 3.83323C4.87492 3.83323 -0.958415 16.9582 12.1666 22.7916C9.16319 24.8303 5.58536 25.8525 1.95825 25.7082C15.0833 32.9999 31.1249 25.7082 31.1249 8.93739C31.1236 8.53118 31.0845 8.12597 31.0083 7.72698C32.4966 6.25915 33.547 4.40593 34.0416 2.37489V2.37489Z" stroke="#4731D3" stroke-width="3" stroke-linecap="round" stroke-linejoin="round"/>
</svg>
